<?xml version="1.0" standalone="no"?>
<!DOCTYPE svg PUBLIC "-//W3C//DTD SVG 20010904//EN"
 "http://www.w3.org/TR/2001/REC-SVG-20010904/DTD/svg10.dtd">
<svg version="1.0" xmlns="http://www.w3.org/2000/svg"
 width="500.000000pt" height="500.000000pt" viewBox="0 0 500.000000 500.000000"
 preserveAspectRatio="xMidYMid meet">
<metadata>
Created by potrace 1.11, written by Peter Selinger 2001-2013
</metadata>
<g transform="translate(0.000000,500.000000) scale(0.100000,-0.100000)"
fill="#000000" stroke="none">
<path d="M2500 4869 c-59 -38 -79 -59 -98 -96 -44 -87 -63 -96 -155 -71 -86
23 -154 -9 -163 -77 -18 -125 -100 -204 -232 -225 -51 -8 -62 -15 -107 -63
-28 -29 -64 -81 -80 -114 -28 -57 -36 -65 -117 -112 -460 -269 -768 -707 -885
-1259 -24 -113 -27 -150 -27 -327 -1 -227 14 -344 69 -535 103 -358 328 -699
610 -923 137 -110 185 -139 214 -132 15 4 30 0 43 -12 12 -10 36 -18 57 -18
29 0 36 -4 36 -19 0 -10 10 -22 23 -27 12 -5 22 -16 23 -26 0 -10 7 0 15 22 8
22 34 59 57 83 41 42 42 44 42 112 0 58 2 66 14 57 8 -7 23 -32 34 -57 82
-184 348 -451 567 -568 110 -59 195 -76 333 -69 232 12 376 81 578 278 88 87
206 221 234 269 11 19 24 41 29 50 5 8 44 44 88 79 184 149 389 422 493 659
88 201 138 404 156 633 29 393 -66 770 -286 1124 -34 55 -81 135 -105 178 -55
97 -127 178 -224 251 -109 82 -135 135 -71 146 39 7 43 38 15 113 -22 59 -72
112 -116 123 -14 4 -51 1 -81 -5 -110 -22 -155 -8 -168 50 -8 37 5 54 43 54
65 0 31 65 -134 254 -105 120 -170 174 -225 186 -24 6 -33 2 -50 -19 -29 -37
-58 -32 -118 19 -59 50 -63 52 -176 59 l-80 4 -75 -49z m356 -1113 c92 -30
235 -119 349 -220 88 -78 222 -171 300 -208 36 -17 94 -59 146 -107 93 -86
115 -122 183 -304 40 -107 44 -161 26 -382 -6 -80 -5 -139 5 -215 34 -264 28
-442 -22 -595 -36 -112 -117 -259 -179 -327 -58 -63 -99 -133 -134 -223 -13
-33 -35 -76 -49 -95 -15 -19 -46 -79 -71 -133 -40 -90 -51 -105 -124 -173 -95
-87 -157 -121 -257 -138 -41 -7 -111 -25 -157 -40 -126 -40 -172 -36 -262 20
-72 44 -96 52 -226 70 -38 5 -165 88 -231 151 -46 43 -54 58 -82 145 -16 53
-41 140 -55 195 -19 76 -38 120 -84 198 -33 55 -71 120 -85 145 -46 78 -134
263 -150 315 -21 65 -31 277 -18 368 22 148 41 306 51 432 13 148 19 188 48
300 11 44 24 125 30 180 12 115 41 193 109 300 111 170 183 227 325 256 61 12
125 35 197 69 l106 51 115 -4 c86 -4 136 -12 196 -31z m-1224 -1432 l51 -26
-6 -49 c-3 -27 -10 -57 -15 -66 -8 -14 -12 -11 -26 18 -17 36 -78 91 -103 93
-38 3 -73 -86 -71 -179 0 -49 1 -48 9 18 21 158 62 176 150 66 l33 -42 -3
-141 c-2 -98 2 -164 13 -216 9 -41 16 -98 16 -125 0 -28 7 -77 15 -108 22 -83
20 -97 -11 -97 -31 0 -61 15 -96 48 -28 26 -59 114 -107 302 -57 220 -57 221
-37 317 16 79 50 165 78 201 16 19 54 14 110 -14z m2376 -99 c24 -30 56 -231
50 -313 -3 -38 -22 -100 -57 -187 -73 -181 -107 -240 -160 -283 -25 -21 -49
-41 -53 -47 -16 -22 -18 6 -3 41 50 117 114 380 116 471 0 26 4 57 9 68 7 19
9 18 19 -8 6 -16 11 -67 12 -115 1 -59 4 -79 9 -62 20 63 4 198 -28 233 -22
25 -30 219 -8 211 8 -3 17 -1 21 5 11 20 53 12 73 -14z m-2278 -1312 c-1 -5
-7 -19 -15 -33 -12 -22 -14 -23 -20 -7 -4 9 -2 24 5 32 13 16 30 20 30 8z"/>
<path d="M2120 2869 c-98 -12 -220 -70 -278 -133 -38 -41 -83 -148 -69 -162 3
-3 26 11 51 30 26 19 63 38 82 42 63 12 185 -3 289 -36 130 -40 194 -46 271
-26 34 9 78 16 97 16 66 0 117 71 103 144 -10 53 -42 74 -146 96 -51 11 -109
24 -129 30 -42 12 -165 11 -271 -1z"/>
<path d="M3175 2810 c-66 -4 -123 -8 -128 -9 -16 -2 -47 -67 -47 -98 0 -48 34
-78 120 -103 91 -28 185 -34 350 -23 205 13 291 -9 338 -89 27 -45 35 -33 27
40 -8 76 -22 112 -66 165 -58 71 -104 88 -278 108 -86 10 -165 18 -176 17 -11
-1 -74 -5 -140 -8z"/>
<path d="M2043 2556 c-40 -13 -113 -53 -113 -62 0 -2 17 4 38 14 59 31 110 44
191 52 l76 7 -75 1 c-41 0 -94 -5 -117 -12z"/>
<path d="M3290 2521 c-26 -5 -7 -8 75 -13 118 -7 261 -42 296 -74 10 -9 19
-12 19 -6 0 46 -284 115 -390 93z"/>
<path d="M2100 2466 c-57 -16 -170 -68 -170 -79 0 -21 36 -16 97 13 37 17 69
27 71 21 2 -5 13 -22 24 -37 21 -25 24 -26 96 -22 63 4 79 9 94 28 10 12 18
31 18 42 0 19 5 20 95 16 115 -5 104 6 -20 21 -117 14 -248 13 -305 -3z m98
-53 c2 -8 -5 -13 -17 -13 -12 0 -21 6 -21 16 0 18 31 15 38 -3z"/>
<path d="M3190 2434 c-106 -13 -108 -30 -2 -26 l78 3 -4 -33 c-5 -49 15 -68
92 -84 62 -13 72 -13 93 1 13 9 29 27 35 41 14 31 21 30 71 -5 54 -37 87 -48
87 -27 0 24 -86 77 -169 104 -75 24 -201 35 -281 26z m243 -78 c8 -20 -20 -43
-35 -28 -14 14 -3 42 16 42 7 0 16 -6 19 -14z"/>
<path d="M3105 1925 c34 -107 31 -136 -16 -190 -35 -40 -25 -47 14 -11 49 46
54 120 13 192 -10 16 -14 20 -11 9z"/>
<path d="M2456 1888 c-15 -58 -7 -99 28 -134 19 -19 40 -34 48 -34 7 0 -1 11
-19 25 -38 30 -57 83 -49 131 8 38 2 47 -8 12z"/>
<path d="M2577 1813 c-18 -17 -1 -23 71 -23 72 1 75 2 52 15 -26 15 -111 20
-123 8z"/>
<path d="M2938 1808 c-46 -16 -33 -31 22 -26 56 6 72 14 50 28 -18 12 -37 11
-72 -2z"/>
<path d="M2881 1703 c-19 -8 -61 -103 -61 -140 0 -35 -15 -52 -24 -27 -3 9 -6
32 -6 53 0 95 -116 144 -180 76 -28 -30 -118 -59 -244 -81 -105 -18 -170 -48
-214 -98 -62 -71 -71 -196 -17 -250 16 -16 19 -14 49 31 34 53 93 98 146 112
19 6 87 14 150 20 75 6 134 16 168 30 29 12 65 21 81 21 16 0 40 9 54 20 30
24 37 24 74 6 15 -8 48 -19 73 -25 25 -6 77 -20 115 -31 39 -12 104 -25 145
-31 99 -13 155 -46 181 -105 20 -45 65 -104 79 -104 17 0 32 74 28 140 -3 55
-9 74 -31 104 -35 45 -109 88 -209 120 -43 14 -108 44 -145 67 -138 85 -180
104 -212 92z"/>
<path d="M2856 1394 c-23 -13 -45 -15 -115 -9 -63 5 -103 3 -146 -8 -33 -8
-107 -21 -165 -28 l-105 -13 60 -9 c65 -10 75 -15 58 -25 -6 -4 2 -14 21 -23
26 -13 33 -14 33 -3 0 7 -3 12 -6 10 -3 -2 -11 1 -17 8 -8 8 10 12 70 13 62 0
72 -1 41 -7 -22 -4 -34 -8 -27 -9 14 -3 88 -3 130 -1 24 1 25 2 7 11 -15 7
-11 7 15 3 19 -4 76 -7 127 -8 50 0 89 -4 87 -8 -5 -7 12 -6 86 6 24 4 28 3
10 -2 -17 -5 -25 -15 -25 -32 0 -13 -6 -25 -12 -27 -7 -3 -13 0 -13 6 0 6 -18
11 -39 11 -22 0 -41 4 -43 9 -1 4 -29 12 -60 15 -49 6 -58 5 -58 -8 0 -9 -7
-16 -15 -16 -8 0 -15 5 -15 10 0 6 -21 10 -46 10 -65 0 -54 -25 12 -26 27 -1
69 -4 94 -7 25 -4 73 -8 108 -8 34 -1 62 -6 62 -12 0 -12 111 0 124 13 6 6 6
10 1 10 -6 0 -10 14 -10 30 0 30 1 31 40 24 44 -8 50 -8 83 -6 36 3 25 20 -20
32 -24 7 -77 28 -118 48 -88 42 -168 52 -214 26z"/>
<path d="M2518 1293 c7 -3 16 -2 19 1 4 3 -2 6 -13 5 -11 0 -14 -3 -6 -6z"/>
<path d="M3144 1273 c10 -11 37 -12 30 -2 -3 5 -12 9 -21 9 -9 0 -13 -3 -9 -7z"/>
<path d="M2541 1235 c14 -15 100 -35 147 -35 21 0 22 2 12 15 -7 8 -23 15 -36
15 -12 0 -26 5 -29 10 -3 6 -29 10 -58 10 -45 0 -50 -2 -36 -15z"/>
<path d="M3128 1243 c7 -3 16 -2 19 1 4 3 -2 6 -13 5 -11 0 -14 -3 -6 -6z"/>
<path d="M2798 1203 c7 -3 16 -2 19 1 4 3 -2 6 -13 5 -11 0 -14 -3 -6 -6z"/>
<path d="M2517 1138 c-29 -22 -18 -60 23 -80 88 -43 426 -55 531 -19 68 23 82
43 51 73 -22 22 -30 23 -180 23 -86 1 -213 4 -282 9 -101 6 -129 5 -143 -6z"/>
<path d="M1557 2041 c-23 -73 -21 -86 4 -31 11 24 18 53 16 65 -2 13 -9 1 -20
-34z"/>
<path d="M1546 1840 c4 -19 10 -42 15 -50 11 -18 1 34 -13 65 -5 13 -6 9 -2
-15z"/>
<path d="M3967 2149 c-20 -17 -42 -40 -48 -52 -7 -13 5 -5 27 18 l39 39 8 -54
c12 -78 3 -237 -16 -290 -9 -24 -15 -46 -13 -48 2 -2 14 22 25 53 19 51 21 74
19 211 l-3 154 -38 -31z"/>
<path d="M3564 689 c-1 -85 2 -112 7 -84 9 47 9 137 0 179 -3 16 -6 -26 -7
-95z"/>
<path d="M3552 510 c0 -14 2 -19 5 -12 2 6 2 18 0 25 -3 6 -5 1 -5 -13z"/>
<path d="M1790 444 c0 -71 72 -308 105 -349 33 -40 31 -27 -5 46 -17 33 -45
115 -61 182 -29 113 -39 145 -39 121z"/>
<path d="M3486 223 c-6 -14 -5 -15 5 -6 7 7 10 15 7 18 -3 3 -9 -2 -12 -12z"/>
</g>
</svg>
